<?xml version="1.0" standalone="no"?>
<!DOCTYPE svg PUBLIC "-//W3C//DTD SVG 20010904//EN"
 "http://www.w3.org/TR/2001/REC-SVG-20010904/DTD/svg10.dtd">
<svg version="1.0" xmlns="http://www.w3.org/2000/svg"
 width="1048.000000pt" height="1048.000000pt" viewBox="0 0 1048.000000 1048.000000"
 preserveAspectRatio="xMidYMid meet">
<metadata>
Created by potrace 1.14, written by Peter Selinger 2001-2017
</metadata>
<g transform="translate(0.000000,1048.000000) scale(0.100000,-0.100000)"
fill="#000000" stroke="none">
<path d="M1770 10473 c-195 -11 -473 -62 -631 -114 -284 -95 -481 -217 -671
-417 -238 -251 -378 -581 -445 -1052 -17 -118 -18 -315 -18 -3650 0 -3335 1
-3532 18 -3650 54 -380 144 -639 305 -880 72 -107 222 -263 331 -346 235 -176
586 -301 971 -346 170 -19 7050 -19 7220 0 362 43 674 147 919 309 112 74 308
270 383 383 186 281 287 612 318 1045 8 117 10 1086 8 3590 -4 3198 -5 3438
-21 3550 -54 368 -148 638 -305 875 -78 118 -271 310 -391 388 -236 154 -486
241 -866 299 -101 16 -379 17 -3590 18 -1914 1 -3505 0 -3535 -2z m7066 -1929
c239 -83 410 -255 491 -494 17 -53 18 -154 23 -2410 l5 -2355 250 -5 c356 -7
339 11 333 -344 -4 -226 -6 -246 -30 -318 -40 -119 -92 -204 -182 -294 -90
-89 -174 -142 -294 -183 l-77 -26 -4080 -3 c-4587 -3 -4160 -10 -4335 76 -78
38 -110 61 -181 132 -95 94 -146 175 -187 298 -24 72 -26 92 -30 318 -6 355
-23 337 333 344 l250 5 5 2355 c5 2256 6 2357 23 2410 28 81 91 198 138 255
96 116 262 220 399 250 55 11 604 13 3575 12 l3510 -2 61 -21z"/>
<path d="M1777 8270 c-170 -29 -313 -173 -347 -349 -7 -36 -10 -829 -10 -2347
l0 -2294 3820 0 3820 0 0 2294 c0 1518 -3 2311 -10 2347 -34 181 -176 320
-356 349 -72 12 -6846 11 -6917 0z m5053 -1110 c778 -286 1425 -528 1437 -536
30 -19 55 -69 55 -109 0 -38 -24 -88 -52 -108 -11 -7 -267 -105 -570 -217
l-550 -203 0 -850 c0 -940 3 -897 -64 -938 -44 -27 -396 -141 -561 -183 -900
-225 -1812 -182 -2692 126 -115 40 -148 56 -171 83 l-29 32 -6 558 c-4 307 -7
697 -7 866 l0 307 -27 10 c-16 5 -190 69 -388 142 -198 73 -384 140 -412 151
l-53 18 0 -204 0 -204 53 -24 c102 -47 184 -142 223 -257 16 -47 19 -86 19
-265 0 -234 -3 -246 -68 -285 -30 -19 -53 -20 -372 -20 -320 0 -342 1 -372 20
-58 35 -67 67 -71 242 -4 185 8 280 48 366 36 78 115 159 192 196 l57 28 3
343 3 344 28 29 c16 17 41 32 55 34 19 4 2640 964 2812 1031 8 4 26 4 40 2 14
-2 662 -238 1440 -525z"/>
<path d="M3920 5139 c0 -401 2 -729 5 -729 2 0 62 -18 132 -41 608 -193 1253
-253 1873 -173 261 33 593 107 814 182 l111 37 3 719 c1 396 -1 723 -5 726 -5
4 -332 -114 -728 -261 -396 -148 -727 -269 -737 -269 -9 0 -308 108 -665 241
-356 132 -683 254 -725 269 l-78 29 0 -730z"/>
<path d="M4360 2966 c0 -34 40 -88 80 -109 33 -16 87 -17 810 -15 728 3 778 4
803 21 34 22 67 74 67 105 l0 22 -880 0 -880 0 0 -24z"/>
</g>
</svg>
